#!OML:ASF F:\twosubjects\two\Thursday\Session 1\Rory.ASF
:FULLY-SPECIFIED
:DEGREES
253
root 9.64197 13.2438 5.12418 -148.527 -85.5457 123.385
lowerback 34.9169 0.541323 -2.05476
upperback 12.9516 -1.81385 -1.21229
thorax -3.40067 -1.66473 0.460137
lowerneck -9.39305 -6.91939 -12.2017
upperneck 34.5113 -15.8677 16.4912
head 16.4433 -7.16326 6.41924
rclavicle -2.3233e-015 2.9445e-015
rhumerus 1.74008 20.2682 -88.1475
rradius 46.2314
rwrist 22.4145
rhand -35.233 39.3155
rfingers 7.12502
rthumb -8.36962 9.50131
lclavicle -2.3233e-015 2.9445e-015
lhumerus 4.50308 -27.5412 79.188
lradius 42.2474
lwrist -25.8258
lhand -23.1167 30.7866
lfingers 7.12502
lthumb 3.33038 60.7404
rfemur -45.2823 -9.38989 8.48307
rtibia 63.6713
rfoot 9.91796 -3.3625
rtoes -1.5866
lfemur -42.5648 5.44316 -11.9761
ltibia 59.5436
lfoot 10.4437 5.53492
ltoes 29.2973
254
root 9.64248 13.2511 5.12412 -147.112 -85.3572 121.92
lowerback 34.9877 0.73913 -2.27338
upperback 12.908 -1.63201 -1.15564
thorax -3.46816 -1.58186 0.576273
lowerneck -9.24449 -6.98833 -12.1198
upperneck 34.5546 -15.9991 16.4092
head 16.4393 -7.2239 6.34632
rclavicle 1.15481e-014 -1.56667e-014
rhumerus 1.84983 20.0341 -88.0873
rradius 45.8961
rwrist 22.3825
rhand -35.5918 39.2827
rfingers 7.12502
rthumb -8.71586 9.48264
lclavicle 1.15481e-014 -1.56667e-014
lhumerus 4.56236 -27.4823 79.5769
lradius 41.9634
lwrist -26.2274
lhand -22.9449 30.0431
lfingers 7.12502
lthumb 3.49627 59.9941
rfemur -45.2661 -9.52078 8.30013
rtibia 63.7069
rfoot 9.9833 -3.3019
rtoes -0.404074
lfemur -42.4607 5.3951 -12.1287
ltibia 59.6003
lfoot 10.1975 5.63428
ltoes 30.0558
255
root 9.63653 13.2429 5.12075 -147.517 -85.2474 122.372
lowerback 35.0587 0.932871 -2.35952
upperback 12.831 -1.40555 -1.07299
thorax -3.57621 -1.47036 0.6356
lowerneck -9.12927 -7.09653 -11.9368
upperneck 34.5749 -16.1768 16.2664
head 16.422 -7.29253 6.21384
rclavicle 9.96408e-015 2.38542e-015
rhumerus 2.00878 19.852 -87.9659
rradius 45.6083
rwrist 22.1789
rhand -35.7525 38.9943
rfingers 7.12502
rthumb -8.87101 9.20081
lclavicle 9.96408e-015 2.38542e-015
lhumerus 4.717 -27.5839 79.846
lradius 41.6909
lwrist -26.6913
lhand -22.6202 29.7826
lfingers 7.12502
lthumb 3.80991 59.7282
rfemur -45.4267 -9.56893 8.31739
rtibia 63.796
rfoot 9.94231 -3.19733
rtoes 0.247552
lfemur -42.5543 5.51107 -12.096
ltibia 59.7014
lfoot 10.1349 5.82099
ltoes 31.4163
256
root 9.63082 13.2335 5.11829 -147.18 -85.2302 122.184
lowerback 34.9435 0.983035 -2.41636
upperback 12.7992 -1.34706 -1.0787
thorax -3.57075 -1.43837 0.639272
lowerneck -9.17298 -7.11617 -11.645
upperneck 34.6771 -16.2258 16.0733
head 16.4375 -7.29042 6.06439
rclavicle -3.10601e-017 1.97045e-014
rhumerus 2.18619 19.7963 -87.8981
rradius 45.4345
rwrist 21.9628
rhand -35.4391 38.8749
rfingers 7.12502
rthumb -8.5685 9.0688
lclavicle -3.10601e-017 1.97045e-014
lhumerus 4.85325 -27.6992 79.8122
lradius 41.5781
lwrist -27.146
lhand -22.4031 30.2833
lfingers 7.12502
lthumb 4.01954 60.2251
rfemur -45.6835 -9.63565 8.34655
rtibia 63.8834
rfoot 9.85706 -2.9003
rtoes -1.04556
lfemur -42.8031 5.54809 -12.1088
ltibia 59.794
lfoot 10.1444 5.96535
ltoes 32.1764
257
root 9.62371 13.2356 5.1129 -147.108 -85.2484 122.148
lowerback 34.7737 1.02347 -2.49713
upperback 12.8237 -1.31167 -1.07716
thorax -3.48413 -1.42353 0.668891
lowerneck -9.22293 -7.10134 -11.4026
upperneck 34.7782 -16.2469 15.9625
head 16.4653 -7.27714 5.96826
rclavicle -3.04389e-016 2.91965e-015
rhumerus 2.23672 19.7905 -87.7925
rradius 45.4318
rwrist 21.6744
rhand -34.7027 39.1123
rfingers 7.12502
rthumb -7.85783 9.27831
lclavicle -3.04389e-016 2.91965e-015
lhumerus 4.87881 -27.9138 79.8161
lradius 41.4941
lwrist -26.9565
lhand -22.9222 30.8046
lfingers 7.12502
lthumb 3.51824 60.7553
rfemur -45.7488 -9.68908 8.40292
rtibia 63.9449
rfoot 9.82287 -2.66367
rtoes -2.53793
lfemur -42.8625 5.52966 -12.0841
ltibia 59.8754
lfoot 10.1002 5.98156
ltoes 32.585
